<?xml version="1.0" encoding="utf-8"?>
<!-- Generator: Adobe Illustrator 16.0.0, SVG Export Plug-In . SVG Version: 6.00 Build 0)  -->
<!DOCTYPE svg PUBLIC "-//W3C//DTD SVG 1.1//EN" "http://www.w3.org/Graphics/SVG/1.1/DTD/svg11.dtd">
<svg version="1.1" id="Layer_1" xmlns="http://www.w3.org/2000/svg" xmlns:xlink="http://www.w3.org/1999/xlink" x="0px" y="0px"
	 width="1025.617px" height="250.305px" viewBox="0 0 1025.617 250.305" enable-background="new 0 0 1025.617 250.305"
	 xml:space="preserve">
<g>
	<path fill-rule="evenodd" clip-rule="evenodd" d="M178.803,135.571c0.247,1.244,0.389,2.173,0.616,3.081
		c3.849,15.422,7.556,30.882,11.62,46.247c2.514,9.505,5.716,18.822,10.033,27.688c1.568,3.222,3.523,6.261,5.406,9.319
		c0.662,1.074,1.619,1.973,2.473,2.923c4.246,4.722,10.237,3.987,14.193,1.459c2.266-1.449,3.984-3.439,5.504-5.619
		c2.899-4.157,5.164-8.67,6.944-13.383c4.716-12.481,9.284-25.02,13.888-37.544c1.378-3.75,2.673-7.53,4.023-11.291
		c0.897-2.502,1.983-3.33,3.673-2.86c1.649,0.459,2.083,1.882,1.446,4.373c-2.888,11.299-5.675,22.625-8.648,33.902
		c-2.835,10.752-6.199,21.336-11.036,31.39c-3.066,6.374-6.665,12.398-11.801,17.37c-2.787,2.698-5.896,4.907-9.574,6.238
		c-7.693,2.785-14.604,1.575-20.688-4.003c-4.24-3.888-7.439-8.555-10.226-13.531c-4.115-7.348-7.189-15.154-10.108-23.03
		c-7.198-19.431-12.804-39.348-18.178-59.336c-1.18-4.389-2.354-8.78-3.556-13.262c-28.89,0-57.656,0-86.557,0
		c-0.286,0.791-0.582,1.522-0.817,2.272c-5.39,17.234-10.777,34.469-16.152,51.707c-1.079,3.458-3.698,5.574-6.969,5.552
		c-3.043-0.021-5.783-2.008-6.618-4.971c-0.272-0.969-0.388-2.084-0.207-3.062c2.71-14.607,5.473-29.205,8.246-43.801
		c0.474-2.495,1.052-4.97,1.662-7.829c-1.089,0-1.933,0-2.776,0c-10.959,0-21.92-0.114-32.876,0.053
		c-4.708,0.071-10.362-3.162-11.554-9.524c-1.185-6.32,3.366-12.586,9.77-13.256c1.349-0.141,2.714-0.186,4.071-0.167
		c11.197,0.147,22.394,0.322,33.591,0.481c1.585,0.022,3.172,0.003,4.975,0.003c0.853-3.308,1.699-6.617,2.559-9.922
		c4.554-17.486,9.642-34.806,16.259-51.642c4.365-11.106,9.28-21.944,15.946-31.9c3.44-5.14,7.286-9.935,12.188-13.786
		c4.035-3.169,8.462-5.413,13.683-5.849c4.172-0.348,7.902,0.8,11.335,3.098c3.43,2.295,6.239,5.235,8.763,8.467
		c5.601,7.175,9.757,15.189,13.487,23.437c7.46,16.496,13.061,33.663,18.175,50.994c2.667,9.041,5.118,18.146,7.667,27.223
		c0.127,0.453,0.266,0.902,0.422,1.433c0.447,0.064,0.827,0.157,1.208,0.166c6.557,0.159,13.115,0.26,19.67,0.469
		c15.508,0.493,31.018,0.94,46.52,1.592c10.463,0.44,20.914,1.186,31.369,1.816c4.606,0.277,7.591,2.639,8.56,6.693
		c1.126,4.712-2.309,9.589-7.126,10.041c-1.35,0.127-2.717,0.079-4.077,0.079c-29.118,0.004-58.236,0.003-87.354,0.003
		C180.917,135.571,179.985,135.571,178.803,135.571z M149.227,114.439c-0.556-2.146-1.002-3.919-1.476-5.685
		c-5.465-20.367-11.127-40.676-18.277-60.532c-2.626-7.293-5.411-14.532-9.244-21.303c-0.662-1.169-1.469-2.301-2.4-3.266
		c-1.733-1.796-3.934-2.122-6.187-1.229c-1.079,0.427-2.185,1.14-2.915,2.024c-2.334,2.825-4.725,5.647-6.681,8.732
		c-4.248,6.701-7.42,13.965-10.389,21.305c-7.5,18.548-13.161,37.687-18.191,57.025c-0.15,0.578-0.18,1.188-0.292,1.965
		C98.54,113.797,123.705,114.116,149.227,114.439z"/>
	<path fill-rule="evenodd" clip-rule="evenodd" d="M442.498,143.347c0.761-1.345,1.313-2.276,1.825-3.229
		c11.386-21.201,22.767-42.405,34.152-63.607c0.302-0.563,0.592-1.141,0.966-1.655c1.237-1.7,2.903-2.531,5-2.072
		c2.048,0.448,3.397,1.762,3.864,3.824c0.191,0.844,0.184,1.744,0.184,2.619c0.009,30.158,0.008,60.315,0.002,90.474
		c0,0.796,0.017,1.612-0.142,2.385c-0.515,2.51-2.821,4.285-5.188,4.079c-2.453-0.213-4.41-2.205-4.615-4.74
		c-0.058-0.716-0.022-1.439-0.022-2.159c-0.001-22.878-0.001-45.757-0.001-68.635c0-0.717,0-1.433,0-2.684
		c-0.604,0.871-0.982,1.318-1.254,1.822c-9.661,17.863-19.311,35.731-28.964,53.597c-0.494,0.914-0.953,1.854-1.522,2.721
		c-2.242,3.414-6.572,3.375-8.643-0.16c-1.858-3.172-3.53-6.452-5.272-9.691c-8.328-15.493-16.651-30.989-24.979-46.481
		c-0.26-0.484-0.558-0.949-0.969-1.644c-0.557,0.987-0.345,1.847-0.346,2.641c-0.015,22.878-0.012,45.756-0.013,68.635
		c0,0.8,0.039,1.605-0.041,2.398c-0.24,2.376-2.278,4.273-4.655,4.392c-2.217,0.11-4.472-1.543-4.954-3.754
		c-0.202-0.927-0.225-1.906-0.225-2.861c-0.011-30.158-0.01-60.316-0.002-90.474c0-0.797,0.011-1.609,0.158-2.387
		c0.398-2.111,1.77-3.378,3.79-3.883c1.98-0.494,3.622,0.238,4.902,1.763c0.405,0.483,0.691,1.073,0.992,1.636
		c11.348,21.222,22.69,42.446,34.037,63.668C441.111,140.912,441.699,141.92,442.498,143.347z"/>
	<path fill-rule="evenodd" clip-rule="evenodd" d="M874.896,124.252c0-14.396-0.001-28.793,0-43.19c0-0.72-0.024-1.441,0.011-2.159
		c0.141-2.884,1.979-4.778,4.854-4.894c1.996-0.08,3.998-0.024,5.998-0.023c5.838,0.005,11.677-0.016,17.516,0.028
		c6.031,0.045,11.938,0.896,17.68,2.824c10.592,3.556,17.88,10.601,22.048,20.902c2.296,5.673,3.437,11.62,3.995,17.704
		c0.697,7.601,0.556,15.177-0.546,22.724c-1.061,7.271-3.138,14.205-7.288,20.368c-5.479,8.133-13.335,12.677-22.722,14.829
		c-4.376,1.004-8.815,1.525-13.312,1.522c-7.519-0.005-15.04-0.104-22.555,0.062c-3.125,0.069-5.765-2.09-5.732-5.826
		C874.971,154.167,874.896,139.209,874.896,124.252z M885.149,165.666c1.002,0,1.784,0.001,2.566,0
		c4.159,0,8.321,0.113,12.475-0.034c3.665-0.131,7.359-0.309,10.972-0.894c10.998-1.784,18.695-7.77,22.586-18.377
		c1.636-4.461,2.512-9.077,2.883-13.795c0.693-8.811,0.567-17.584-1.728-26.187c-1.749-6.555-4.812-12.355-10.325-16.59
		c-5.048-3.878-10.892-5.778-17.133-6.121c-7.097-0.391-14.219-0.317-21.331-0.432c-0.295-0.005-0.592,0.131-0.965,0.22
		C885.149,110.787,885.149,138.035,885.149,165.666z"/>
	<path fill-rule="evenodd" clip-rule="evenodd" d="M361.103,145.21c-13.865,0-27.677,0-41.638,0
		c-0.284,0.606-0.611,1.228-0.871,1.876c-3.236,8.083-6.458,16.172-9.697,24.255c-0.326,0.812-0.656,1.643-1.12,2.379
		c-1.312,2.079-3.607,2.909-5.813,2.187c-2.284-0.748-3.67-2.656-3.536-5.093c0.051-0.935,0.295-1.897,0.641-2.773
		c11.929-30.242,23.881-60.475,35.834-90.708c0.264-0.667,0.529-1.343,0.878-1.967c1.935-3.458,6.476-3.665,8.7-0.378
		c0.486,0.718,0.817,1.554,1.139,2.368c11.902,30.081,23.795,60.166,35.681,90.252c0.292,0.739,0.569,1.5,0.719,2.277
		c0.53,2.762-0.735,5.044-3.229,5.945c-2.592,0.937-5.212-0.062-6.519-2.521c-0.336-0.632-0.576-1.315-0.838-1.984
		c-3.117-7.958-6.228-15.919-9.349-23.875C361.797,146.715,361.452,146.002,361.103,145.21z M322.528,135.757
		c11.927,0,23.538,0,35.171,0c-0.575-2.853-16.582-43.783-17.741-45.292C334.152,105.55,328.378,120.553,322.528,135.757z"/>
	<path fill-rule="evenodd" clip-rule="evenodd" d="M781.296,113.08c0-11.598,0.021-23.195-0.017-34.792
		c-0.008-2.41,0.838-4.209,3.089-5.187c3.074-1.334,6.579,0.652,7.024,3.979c0.106,0.787,0.054,1.597,0.054,2.396
		c0.003,21.275-0.031,42.55,0.043,63.825c0.011,2.935,0.296,5.923,0.907,8.789c1.502,7.032,5.924,11.592,12.774,13.602
		c7.29,2.138,14.678,2.174,22.013,0.148c8.161-2.253,12.557-7.844,13.716-16.07c0.344-2.442,0.444-4.937,0.448-7.406
		c0.034-20.955,0.02-41.91,0.021-62.865c0-0.72-0.038-1.444,0.027-2.158c0.249-2.695,2.522-4.73,5.173-4.671
		c2.715,0.059,4.775,2.089,4.939,4.878c0.027,0.479,0.012,0.959,0.012,1.439c0,21.675-0.008,43.35,0.008,65.024
		c0.002,3.531-0.242,7.023-1.035,10.474c-2.393,10.416-8.627,17.362-18.9,20.337c-10.051,2.91-20.235,2.93-30.283-0.02
		c-11.292-3.313-17.533-11.204-19.401-22.652c-0.436-2.667-0.568-5.408-0.585-8.116C781.257,133.714,781.296,123.397,781.296,113.08
		z"/>
	<path fill-rule="evenodd" clip-rule="evenodd" d="M522.648,132.625c0,1.161,0,2.022,0,2.884c0,11.359,0.001,22.718-0.002,34.077
		c0,0.72,0.04,1.447-0.052,2.156c-0.332,2.562-2.623,4.506-5.161,4.431c-2.575-0.076-4.701-2.086-4.914-4.677
		c-0.052-0.637-0.023-1.279-0.024-1.92c0-29.677,0-59.354,0-89.031c0-0.64-0.026-1.282,0.023-1.919
		c0.198-2.605,2.018-4.409,4.641-4.617c0.397-0.032,0.799-0.021,1.199-0.021c9.839,0,19.678,0.018,29.517-0.004
		c3.471-0.008,6.859,0.472,10.151,1.539c8.273,2.681,13.839,8.155,16.396,16.47c2.265,7.365,2.304,14.849,0.062,22.218
		c-3.128,10.286-10.355,16.022-20.78,17.875c-2.189,0.389-4.45,0.495-6.68,0.515c-7.119,0.063-14.238,0.024-21.357,0.025
		C524.793,132.625,523.92,132.625,522.648,132.625z M522.772,123.388c0.96,0,1.739,0,2.52,0c6.156,0,12.312,0.03,18.468-0.017
		c2.072-0.016,4.164-0.079,6.21-0.379c7.39-1.084,12.496-5.003,14.672-12.312c1.325-4.454,1.379-8.974,0.359-13.501
		c-1.596-7.085-5.934-11.532-12.995-13.189c-2.004-0.47-4.104-0.709-6.164-0.735c-7.034-0.089-14.07-0.04-21.105-0.033
		c-0.617,0-1.234,0.08-1.964,0.131C522.772,96.659,522.772,109.822,522.772,123.388z"/>
	<path fill-rule="evenodd" clip-rule="evenodd" d="M976.358,83.216c0,12.242,0,24.13,0,36.332c0.956,0,1.808,0,2.659,0
		c9.517,0,19.033-0.001,28.549,0.001c0.72,0,1.443-0.032,2.158,0.035c2.415,0.227,4.068,2.058,4.099,4.49
		c0.03,2.384-1.613,4.349-3.955,4.658c-0.709,0.094-1.438,0.05-2.156,0.05c-9.517,0.003-19.032,0.002-28.55,0.002
		c-0.863,0-1.727,0-2.751,0c0,12.316,0,24.426,0,36.882c0.867,0,1.714,0,2.561,0c13.435,0.001,26.869,0,40.304,0.002
		c0.72,0,1.444-0.035,2.158,0.036c2.34,0.234,4.135,2.186,4.183,4.495c0.05,2.396-1.806,4.444-4.251,4.675
		c-0.396,0.038-0.799,0.021-1.199,0.021c-16.073,0.001-32.147,0.001-48.221,0c-0.48,0-0.963,0.019-1.438-0.031
		c-2.352-0.251-4.134-2.023-4.372-4.372c-0.071-0.714-0.037-1.438-0.037-2.158c-0.002-29.269-0.002-58.537,0-87.806
		c0-0.64-0.026-1.282,0.023-1.918c0.202-2.599,2.029-4.4,4.654-4.601c0.477-0.037,0.959-0.021,1.438-0.021
		c15.354,0,30.708,0,46.062,0.001c0.479,0,0.963-0.02,1.438,0.028c2.497,0.252,4.206,2.192,4.161,4.701
		c-0.043,2.386-1.745,4.243-4.146,4.469c-0.714,0.067-1.438,0.029-2.158,0.029c-12.795,0.001-25.59,0.001-38.385,0.001
		C978.32,83.216,977.453,83.216,976.358,83.216z"/>
	<path fill-rule="evenodd" clip-rule="evenodd" d="M723.839,83.552c-1.18,0-2.043,0-2.907,0c-7.517,0-15.034,0.007-22.552-0.01
		c-0.871-0.002-1.773-0.019-2.608-0.234c-2.233-0.575-3.664-2.567-3.571-4.794c0.099-2.348,1.777-4.211,4.167-4.543
		c0.787-0.109,1.595-0.092,2.394-0.092c20.152-0.004,40.305-0.004,60.458-0.001c0.719,0,1.445-0.023,2.155,0.067
		c2.425,0.308,4.08,2.113,4.176,4.493c0.1,2.472-1.27,4.359-3.667,4.917c-0.766,0.178-1.583,0.188-2.377,0.189
		c-7.517,0.013-15.034,0.008-22.552,0.008c-0.854,0-1.708,0-2.812,0c0,1.231,0,2.17,0,3.108c0,27.43,0,54.859-0.001,82.29
		c0,0.799,0.041,1.604-0.042,2.396c-0.291,2.799-2.419,4.806-5.061,4.83c-2.742,0.026-4.956-2.077-5.179-4.954
		c-0.056-0.716-0.021-1.439-0.021-2.159c-0.001-27.43-0.001-54.86-0.001-82.29C723.839,85.823,723.839,84.873,723.839,83.552z"/>
	<path fill-rule="evenodd" clip-rule="evenodd" d="M604.249,165.293c1.258,0,2.133,0,3.008,0c12.155,0,24.312-0.001,36.467,0.004
		c0.798,0,1.612-0.045,2.393,0.086c2.419,0.405,4.178,2.576,4.063,4.915c-0.127,2.571-2.006,4.438-4.639,4.588
		c-0.559,0.032-1.119,0.01-1.679,0.01c-14.396,0.001-28.79,0.001-43.185-0.001c-0.72,0-1.444,0.036-2.158-0.034
		c-2.356-0.234-4.143-2.009-4.384-4.356c-0.073-0.713-0.039-1.438-0.039-2.157c-0.001-29.67-0.001-59.339-0.001-89.008
		c0-0.64-0.028-1.282,0.019-1.918c0.192-2.626,2.267-4.654,4.831-4.751c2.655-0.101,4.979,1.897,5.263,4.577
		c0.084,0.792,0.039,1.598,0.04,2.397c0.001,27.51,0.001,55.02,0.001,82.531C604.249,163.116,604.249,164.059,604.249,165.293z"/>
	<path fill-rule="evenodd" clip-rule="evenodd" d="M666.576,124.274c0-14.866-0.001-29.733,0-44.6c0-0.719-0.03-1.441,0.018-2.158
		c0.181-2.69,2.402-4.827,5.009-4.848c2.594-0.021,4.863,2.094,5.105,4.776c0.043,0.476,0.02,0.958,0.02,1.438
		c0.001,30.373-0.012,60.746,0.023,91.119c0.003,2.554-0.7,4.576-3.114,5.69c-3.016,1.391-6.593-0.633-7.006-3.943
		c-0.099-0.788-0.054-1.596-0.054-2.396C666.575,154.327,666.576,139.3,666.576,124.274z"/>
</g>
</svg>
